<svg width="44" height="34" viewBox="0 0 44 34" fill="none" xmlns="http://www.w3.org/2000/svg">
<path d="M30.633 9.41322H24.2511C24.2511 7.354 23.4443 5.37912 22.0081 3.92304C20.5719 2.46695 18.624 1.64893 16.5929 1.64893C14.5618 1.64893 12.6139 2.46695 11.1777 3.92304C9.74148 5.37912 8.93463 7.354 8.93463 9.41322H2.55275C1.87572 9.41322 1.22642 9.6859 0.747684 10.1713C0.26895 10.6566 0 11.3149 0 12.0013V31.4121C0 32.0985 0.26895 32.7568 0.747684 33.2421C1.22642 33.7275 1.87572 34.0002 2.55275 34.0002H30.633C31.3101 34.0002 31.9594 33.7275 32.4381 33.2421C32.9168 32.7568 33.1858 32.0985 33.1858 31.4121V12.0013C33.1858 11.3149 32.9168 10.6566 32.4381 10.1713C31.9594 9.6859 31.3101 9.41322 30.633 9.41322ZM16.5929 4.23703C17.947 4.23703 19.2456 4.78237 20.203 5.7531C21.1605 6.72382 21.6984 8.04041 21.6984 9.41322H11.4874C11.4874 8.04041 12.0253 6.72382 12.9828 5.7531C13.9402 4.78237 15.2388 4.23703 16.5929 4.23703ZM30.633 31.4121H2.55275V12.0013H8.93463V14.5894C8.93463 14.9326 9.06911 15.2618 9.30848 15.5045C9.54784 15.7471 9.87249 15.8835 10.211 15.8835C10.5495 15.8835 10.8742 15.7471 11.1135 15.5045C11.3529 15.2618 11.4874 14.9326 11.4874 14.5894V12.0013H21.6984V14.5894C21.6984 14.9326 21.8329 15.2618 22.0722 15.5045C22.3116 15.7471 22.6363 15.8835 22.9748 15.8835C23.3133 15.8835 23.6379 15.7471 23.8773 15.5045C24.1167 15.2618 24.2511 14.9326 24.2511 14.5894V12.0013H30.633V31.4121Z" fill="black"/>
<rect x="28.3783" y="1" width="14.5929" height="14.5929" rx="7.29645" fill="#3C0500" stroke="white" stroke-width="2"/>
<path d="M35.6725 12.5888C35.2125 12.5888 34.7992 12.4821 34.4325 12.2688C34.0725 12.0554 33.7858 11.7688 33.5725 11.4088C33.3592 11.0488 33.2525 10.6488 33.2525 10.2088C33.2525 9.59544 33.4658 8.98544 33.8925 8.37877L35.9325 5.54877H37.0225L34.9325 8.39877L34.5925 8.57877C34.6725 8.43877 34.7692 8.3221 34.8825 8.22877C34.9958 8.12877 35.1358 8.0521 35.3025 7.99877C35.4692 7.94544 35.6658 7.91877 35.8925 7.91877C36.2992 7.91877 36.6658 8.01544 36.9925 8.20877C37.3258 8.4021 37.5925 8.66877 37.7925 9.00877C37.9992 9.3421 38.1025 9.7321 38.1025 10.1788C38.1025 10.6188 37.9925 11.0221 37.7725 11.3888C37.5592 11.7554 37.2658 12.0488 36.8925 12.2688C36.5258 12.4821 36.1192 12.5888 35.6725 12.5888ZM35.6725 11.7088C35.9525 11.7088 36.2025 11.6421 36.4225 11.5088C36.6492 11.3688 36.8258 11.1854 36.9525 10.9588C37.0858 10.7254 37.1525 10.4654 37.1525 10.1788C37.1525 9.8921 37.0858 9.63544 36.9525 9.40877C36.8258 9.17544 36.6492 8.9921 36.4225 8.85877C36.2025 8.72544 35.9525 8.65877 35.6725 8.65877C35.3925 8.65877 35.1392 8.72544 34.9125 8.85877C34.6925 8.9921 34.5158 9.17544 34.3825 9.40877C34.2558 9.63544 34.1925 9.8921 34.1925 10.1788C34.1925 10.4654 34.2558 10.7254 34.3825 10.9588C34.5158 11.1921 34.6925 11.3754 34.9125 11.5088C35.1392 11.6421 35.3925 11.7088 35.6725 11.7088Z" fill="white"/>
</svg>
