<svg width="37" height="33" viewBox="0 0 37 33" fill="none" xmlns="http://www.w3.org/2000/svg">
<path d="M8.53212 7.40381C5.16681 7.40381 2.43774 10.1048 2.43774 13.4372C2.43774 16.1273 3.50426 22.5118 14.0024 28.9657C14.1905 29.0801 14.4064 29.1407 14.6265 29.1407C14.8466 29.1407 15.0625 29.0801 15.2506 28.9657C25.7487 22.5118 26.8153 16.1273 26.8153 13.4372C26.8153 10.1048 24.0862 7.40381 20.7209 7.40381C17.3556 7.40381 14.6265 11.0604 14.6265 11.0604C14.6265 11.0604 11.8974 7.40381 8.53212 7.40381Z" stroke="black" stroke-width="2.5" stroke-linecap="round" stroke-linejoin="round"/>
<rect x="22.7391" y="1" width="13.0382" height="13.292" rx="6.5191" fill="#3C0500" stroke="white" stroke-width="2"/>
<path d="M26.8827 11.846L29.4427 9.14602C29.7027 8.87935 29.9061 8.64935 30.0527 8.45602C30.1994 8.25602 30.3027 8.07268 30.3627 7.90602C30.4294 7.73935 30.4627 7.56602 30.4627 7.38602C30.4627 7.03268 30.3494 6.75602 30.1227 6.55602C29.8961 6.35602 29.6027 6.25602 29.2427 6.25602C28.8894 6.25602 28.5794 6.34268 28.3127 6.51602C28.0461 6.68268 27.8094 6.94268 27.6027 7.29602L26.9427 6.74602C27.2161 6.29268 27.5461 5.95268 27.9327 5.72602C28.3194 5.49268 28.7661 5.37602 29.2727 5.37602C29.6994 5.37602 30.0694 5.45935 30.3827 5.62602C30.7027 5.79268 30.9494 6.02602 31.1227 6.32602C31.2961 6.62602 31.3827 6.97602 31.3827 7.37602C31.3827 7.66268 31.3461 7.91935 31.2727 8.14602C31.2061 8.37268 31.0827 8.60602 30.9027 8.84602C30.7294 9.07935 30.4861 9.35935 30.1727 9.68602L28.1027 11.816L26.8827 11.846ZM26.8827 12.416V11.846L27.6827 11.576H31.5427V12.416H26.8827Z" fill="white"/>
</svg>
