<svg width="24" height="24" viewBox="0 0 24 24" fill="none" xmlns="http://www.w3.org/2000/svg">
<path d="M12 2.05469C6.50713 2.05469 2.05444 6.50737 2.05444 12.0002C2.05444 17.493 6.50713 21.9457 12 21.9457C17.4928 21.9457 21.9455 17.493 21.9455 12.0002C21.9455 6.50737 17.4928 2.05469 12 2.05469ZM9.56537 16.1224H7.55141V9.64124H9.56537V16.1224ZM8.54596 8.8456C7.90986 8.8456 7.49857 8.39495 7.49857 7.83758C7.49857 7.26883 7.92229 6.83164 8.57186 6.83164C9.22142 6.83164 9.61924 7.26883 9.63168 7.83758C9.63168 8.39495 9.22142 8.8456 8.54596 8.8456ZM16.9209 16.1224H14.9069V12.5306C14.9069 11.6946 14.6148 11.1269 13.8865 11.1269C13.3302 11.1269 12.9997 11.5112 12.8536 11.8811C12.7997 12.0126 12.7863 12.1991 12.7863 12.3845V16.1214H10.7713V11.708C10.7713 10.8989 10.7454 10.2224 10.7184 9.64021H12.4682L12.5604 10.5405H12.6008C12.866 10.1178 13.5156 9.49413 14.6024 9.49413C15.9274 9.49413 16.9209 10.382 16.9209 12.2903V16.1224Z" fill="white"/>
</svg>
